<?xml version="1.0" standalone="no"?>
<!DOCTYPE svg PUBLIC "-//W3C//DTD SVG 20010904//EN"
 "http://www.w3.org/TR/2001/REC-SVG-20010904/DTD/svg10.dtd">
<svg version="1.0" xmlns="http://www.w3.org/2000/svg"
 width="266.000000pt" height="190.000000pt" viewBox="0 0 266.000000 190.000000"
 preserveAspectRatio="xMidYMid meet">

<g transform="translate(0.000000,190.000000) scale(0.100000,-0.100000)"
fill="#000000" stroke="none">
<path d="M0 1714 l0 -187 42 7 c23 4 86 11 141 16 54 5 101 12 105 14 4 2 43
10 87 16 44 7 89 13 100 15 301 50 319 51 350 31 14 -9 26 -12 26 -6 1 5 2 16
3 23 1 6 -4 19 -12 29 -8 9 -12 32 -10 54 2 30 10 43 36 60 103 69 424 71 581
4 64 -28 82 -49 88 -104 6 -45 6 -46 97 -99 50 -30 125 -73 166 -98 102 -60
120 -69 135 -69 6 0 20 -9 30 -20 9 -10 34 -25 54 -31 20 -7 55 -31 78 -54 22
-24 58 -49 79 -55 21 -7 51 -25 66 -40 15 -16 60 -46 100 -69 40 -23 87 -50
103 -61 17 -11 37 -23 45 -27 8 -4 47 -28 87 -55 39 -26 74 -48 77 -48 3 0 6
212 6 470 l0 470 -179 0 c-179 0 -179 0 -173 -22 3 -14 2 -19 -6 -14 -7 4 -12
14 -12 22 0 8 -10 14 -25 14 -14 0 -25 -1 -25 -3 0 -13 43 -87 50 -87 6 0 10
-14 10 -30 0 -17 7 -46 14 -65 19 -45 3 -46 -45 -2 -55 50 -82 101 -77 147 l4
40 -328 0 c-303 0 -352 -4 -318 -25 6 -3 10 -10 10 -15 0 -5 -20 2 -44 15
l-45 25 -735 0 -736 0 0 -186z m2128 17 c3 -16 -1 -22 -10 -19 -7 3 -15 15
-16 27 -3 16 1 22 10 19 7 -3 15 -15 16 -27z m-50 -300 c3 -8 -1 -12 -9 -9 -7
2 -15 10 -17 17 -3 8 1 12 9 9 7 -2 15 -10 17 -17z"/>
<path d="M1165 1682 c-22 -2 -44 -10 -48 -18 -4 -8 -15 -14 -24 -14 -14 0 -14
-3 -5 -12 19 -19 249 -18 282 1 l24 14 -24 9 c-32 12 -154 24 -205 20z"/>
<path d="M956 1611 c-4 -5 -2 -12 3 -15 5 -4 12 -2 15 3 4 5 2 12 -3 15 -5 4
-12 2 -15 -3z"/>
<path d="M854 1575 c-31 -41 -41 -107 -19 -125 8 -7 15 -21 15 -31 0 -10 5
-21 10 -24 6 -3 10 -19 10 -35 0 -25 -4 -29 -39 -35 -22 -4 -51 -17 -64 -29
-22 -20 -26 -21 -47 -7 -21 14 -24 13 -49 -17 -23 -27 -28 -29 -40 -16 -8 10
-11 28 -8 49 3 18 4 35 1 37 -2 3 -32 -2 -66 -10 -35 -8 -76 -14 -92 -13 -16
0 -36 -4 -46 -9 -14 -8 -34 7 -109 80 -50 50 -95 90 -101 90 -19 0 -10 -29 17
-49 43 -34 75 -83 60 -93 -8 -5 -7 -8 6 -8 17 0 47 -22 47 -33 0 -2 -28 -8
-61 -11 -34 -4 -96 -16 -138 -26 -42 -11 -91 -20 -108 -20 -31 0 -33 -2 -33
-34 0 -44 11 -51 80 -52 30 0 164 -8 297 -18 l242 -17 86 27 c47 15 88 24 91
21 3 -3 -20 -14 -52 -24 -55 -17 -56 -18 -29 -24 17 -4 81 -7 144 -8 107 -1
116 1 147 24 32 25 71 34 59 15 -3 -5 -1 -10 4 -10 6 0 11 -9 11 -20 0 -11 4
-20 9 -20 8 0 -3 -82 -14 -100 -9 -15 14 -21 35 -10 16 8 22 7 32 -10 14 -22
33 -26 43 -10 4 6 3 10 -2 9 -19 -3 -33 2 -33 12 0 5 5 7 12 3 7 -5 9 -2 6 8
-4 8 -3 20 1 27 10 16 71 3 71 -16 0 -12 7 -14 30 -9 17 3 39 2 48 -3 56 -29
68 -31 101 -21 33 9 50 2 51 -21 0 -10 60 -5 60 5 0 4 6 6 14 3 8 -3 16 -1 18
5 3 7 15 9 31 4 24 -6 27 -10 22 -37 -4 -22 -2 -28 6 -23 8 5 10 2 6 -8 -6
-17 21 -48 42 -48 8 0 11 8 8 20 -3 11 -1 18 4 14 18 -11 8 16 -16 42 -26 28
-32 40 -15 29 6 -3 10 -2 10 4 0 5 20 9 44 8 24 -1 42 -5 40 -9 -3 -4 1 -5 9
-2 8 3 17 -2 21 -11 3 -9 2 -14 -3 -11 -5 3 -11 -1 -15 -9 -6 -15 21 -35 48
-35 12 0 15 -11 13 -52 -2 -45 1 -53 16 -52 9 1 17 -1 17 -5 0 -3 4 -23 9 -43
5 -22 5 -36 0 -32 -5 3 -9 2 -10 -3 -3 -35 -19 -72 -19 -45 0 17 -17 15 -40
-6 -11 -9 -23 -15 -27 -14 -8 5 -23 -20 -23 -40 0 -15 4 -16 33 -6 17 7 46 20
64 31 18 10 37 16 43 12 6 -4 9 -1 8 7 -2 7 5 12 14 12 10 -1 16 2 13 6 -8 12
45 51 59 43 6 -3 8 -3 4 2 -10 10 10 47 22 40 5 -3 12 0 16 6 5 8 3 9 -6 4 -8
-5 -11 -3 -8 6 3 8 10 13 16 12 5 -1 8 7 4 19 -3 12 -1 19 4 16 13 -9 5 92
-11 127 -26 56 -97 118 -185 161 -108 53 -140 66 -165 69 -11 1 -53 10 -93 19
-104 23 -228 35 -375 37 -75 1 -123 5 -115 10 9 6 7 9 -9 9 -31 0 -123 50
-123 67 0 8 5 11 11 7 6 -3 14 -2 18 4 3 6 20 12 36 14 17 2 47 17 68 33 35
29 37 32 37 91 0 43 -5 65 -15 74 -8 7 -15 18 -15 25 0 7 -13 15 -29 17 -17 2
-28 1 -26 -3 3 -3 -10 -9 -28 -13 -23 -5 -35 -2 -43 9 -6 8 -21 15 -32 15 -11
0 -24 5 -27 10 -11 17 -23 11 -51 -25z m19 -315 c13 -21 14 -30 6 -30 -20 0
-48 31 -42 46 8 21 17 17 36 -16z m-799 -56 c9 -3 13 -10 10 -15 -8 -14 -31
-11 -38 6 -6 16 3 19 28 9z m617 -16 c0 -10 2 -10 6 0 6 16 28 15 42 -2 9 -11
8 -15 -4 -20 -19 -7 -65 10 -65 24 0 15 20 12 21 -2z m599 -18 c53 -27 51 -34
-2 -11 -24 10 -50 21 -58 24 -12 4 -11 6 3 6 10 1 36 -8 57 -19z m-60 -105 c0
-8 -4 -15 -10 -15 -5 0 -7 7 -4 15 4 8 8 15 10 15 2 0 4 -7 4 -15z"/>
<path d="M535 1525 c-16 -13 -37 -25 -45 -25 -32 -1 14 -20 50 -20 27 0 42 -9
77 -45 46 -49 54 -53 73 -30 11 13 8 20 -21 45 -19 16 -37 29 -41 30 -5 0 -8
9 -8 19 0 17 -34 51 -50 51 -3 0 -18 -11 -35 -25z"/>
<path d="M45 1300 l-40 -19 32 0 c38 -1 83 15 83 29 0 15 -30 11 -75 -10z"/>
<path d="M1720 1248 c0 -12 19 -25 125 -87 22 -12 54 -34 72 -47 17 -13 35
-24 38 -24 4 0 25 -15 48 -34 23 -19 81 -58 129 -88 48 -29 88 -57 88 -63 0
-5 -14 -14 -31 -18 -17 -5 -29 -10 -27 -12 2 -2 22 1 44 6 40 10 43 9 130 -47
49 -32 95 -64 102 -71 7 -7 20 -13 28 -13 8 0 12 -5 9 -10 -3 -5 2 -10 12 -10
15 0 16 -2 3 -11 -11 -8 -8 -9 13 -4 19 4 26 2 22 -5 -3 -5 2 -10 12 -10 15 0
16 -2 3 -11 -12 -9 -11 -10 8 -6 23 5 31 -7 10 -17 -7 -3 0 -4 15 -1 19 4 26
2 22 -5 -3 -5 2 -10 12 -11 12 0 9 -5 -12 -14 -34 -16 -19 -20 19 -5 17 6 26
6 26 0 0 -6 -5 -10 -12 -10 -6 0 -9 -2 -6 -5 8 -8 38 6 38 17 0 12 -26 38 -38
38 -5 0 -19 9 -31 19 -13 11 -28 22 -34 25 -8 3 -7 8 3 16 12 9 12 10 -5 6
-14 -4 -50 13 -115 56 -52 34 -97 65 -100 68 -3 3 -93 64 -200 135 -107 71
-220 148 -250 171 -45 34 -87 58 -162 92 -5 2 -8 -2 -8 -10z"/>
<path d="M1735 1179 c-11 -16 -1 -19 13 -3 7 8 8 14 3 14 -5 0 -13 -5 -16 -11z"/>
<path d="M0 1095 l0 -55 53 0 c47 0 89 -13 77 -23 -3 -2 -22 -11 -42 -21 -21
-9 -38 -19 -38 -22 0 -2 29 -2 63 2 55 6 65 4 70 -11 4 -9 5 -21 1 -26 -3 -5
2 -9 10 -9 9 0 16 -9 16 -20 0 -11 -5 -20 -11 -20 -5 0 -7 5 -4 10 3 6 3 10
-2 10 -18 -1 -117 -28 -105 -29 7 -1 10 -5 7 -11 -3 -5 -26 -10 -51 -10 -32 0
-44 -4 -44 -15 0 -19 -8 -19 122 6 106 20 158 20 158 -2 0 -5 -10 -14 -22 -19
-18 -7 -19 -9 -5 -9 9 -1 17 -6 17 -12 0 -6 7 -8 16 -5 19 7 54 -10 54 -27 0
-9 -17 -14 -47 -16 -27 -1 -60 -8 -75 -15 -14 -8 -39 -12 -55 -9 -23 4 -25 2
-13 -7 12 -9 8 -10 -20 -6 -19 3 -57 -1 -85 -8 -27 -8 -41 -15 -30 -15 11 -1
27 -6 35 -11 11 -7 5 -9 -20 -5 -27 4 -30 3 -15 -4 17 -8 18 -10 3 -10 -22 -1
-24 -31 -2 -31 8 0 13 4 10 9 -3 4 7 6 22 4 23 -3 24 -2 7 6 -15 8 -9 9 25 6
36 -4 40 -3 20 5 -20 7 -16 8 20 5 33 -4 39 -2 25 4 -24 12 -2 12 35 2 22 -7
20 -9 -20 -16 -40 -7 -42 -9 -20 -16 37 -10 59 -10 35 2 -14 6 -9 7 20 3 22
-3 52 0 65 6 22 9 20 10 -15 5 -27 -3 -34 -2 -20 4 l20 8 -20 6 c-11 3 -2 3
20 1 30 -4 36 -3 25 5 -12 9 -8 10 15 6 17 -3 44 -1 60 4 21 7 24 10 10 10
-39 2 -43 16 -5 16 21 0 33 -3 27 -7 -8 -5 -5 -8 8 -9 12 -1 3 -6 -20 -14 -30
-9 -35 -13 -20 -16 12 -3 -4 -10 -40 -18 -39 -9 -54 -16 -43 -20 10 -3 -8 -7
-40 -7 -31 -1 -68 -7 -82 -13 -24 -11 -23 -11 8 -6 89 14 89 13 2 -10 -97 -25
-130 -30 -95 -15 24 10 2 13 -32 4 -22 -6 -23 -12 -23 -91 0 -65 3 -82 13 -77
9 6 9 4 1 -7 -8 -9 -12 -83 -13 -216 l-2 -203 588 1 c323 1 578 4 565 6 -12 2
-20 9 -17 14 4 5 -1 9 -10 9 -9 0 -13 4 -10 10 3 5 1 10 -4 10 -15 0 -14 16 2
18 54 4 150 2 168 -3 14 -5 19 -4 15 4 -4 6 -1 11 8 11 8 0 16 -5 18 -11 2 -7
31 -12 71 -13 59 -1 67 1 67 18 0 12 5 16 14 13 8 -3 20 0 26 8 9 11 3 15 -34
20 -25 4 -51 14 -58 22 -10 12 -6 14 33 9 39 -5 41 -4 19 6 l-25 11 24 5 c17
3 20 6 11 12 -9 6 -5 12 17 24 17 8 34 12 38 8 5 -4 5 -1 1 5 -5 8 -1 13 11
14 12 0 9 5 -12 14 l-30 14 34 1 c32 0 33 1 17 13 -17 12 -17 15 -3 20 9 3 27
-3 41 -14 15 -11 24 -15 21 -7 -4 9 5 13 27 14 18 1 34 6 36 12 2 6 11 8 19 5
12 -5 15 -2 10 10 -3 9 -2 17 3 17 6 0 10 9 10 19 0 11 5 23 10 26 6 4 8 10 5
14 -2 5 14 21 37 36 27 18 43 24 46 16 6 -17 22 -3 22 20 0 13 4 18 12 13 7
-5 9 -2 6 8 -4 9 4 27 19 42 14 15 22 30 19 33 -6 6 21 40 96 121 27 30 53 66
58 80 8 24 8 25 -3 7 -35 -57 -128 -135 -208 -173 -55 -26 -86 -36 -91 -29 -5
9 -120 -16 -188 -41 -8 -3 -33 -7 -55 -8 -22 -2 -73 -8 -113 -14 -226 -31
-539 8 -737 92 -94 39 -134 71 -131 103 2 13 -1 22 -5 19 -5 -3 -9 6 -9 20 0
29 -17 43 -32 28 -8 -8 -3 -21 16 -47 15 -19 23 -35 17 -35 -12 0 -63 65 -86
109 -28 56 -14 144 34 204 16 19 47 24 35 5 -5 -7 -3 -8 6 -3 7 4 16 2 21 -6
5 -8 3 -17 -4 -21 -8 -5 -7 -8 5 -8 9 0 23 6 31 14 9 9 19 11 28 5 11 -7 11
-9 -3 -9 -10 0 -16 -6 -14 -12 1 -7 1 -10 -1 -6 -3 4 -11 1 -20 -7 -8 -8 -20
-13 -26 -9 -7 3 -4 -1 6 -9 15 -13 16 -15 2 -21 -8 -3 -15 -15 -15 -26 0 -15
7 -20 24 -20 38 0 64 34 57 74 -1 6 0 19 3 31 5 19 12 22 56 21 44 -1 49 -3
44 -20 -4 -12 -2 -16 5 -12 6 4 11 16 11 27 0 11 7 19 17 19 9 0 14 2 11 5 -7
7 -87 14 -178 15 -66 1 -73 2 -57 14 15 12 16 18 7 35 -10 21 -35 28 -42 14
-1 -5 -18 -16 -35 -26 -25 -13 -33 -15 -33 -5 1 39 16 43 154 43 74 0 132 3
128 6 -4 4 -146 14 -317 23 -171 9 -320 19 -332 22 -22 4 -23 1 -23 -51z m328
-7 c2 -13 -1 -16 -12 -12 -12 4 -16 0 -16 -15 0 -16 -6 -21 -27 -20 -16 0 -23
3 -17 5 8 3 5 13 -8 27 -18 20 -26 22 -98 17 -44 -3 -76 -2 -72 2 8 7 115 15
197 14 39 -1 51 -5 53 -18z m42 -38 c12 -8 11 -10 -7 -10 -13 0 -23 5 -23 10
0 13 11 13 30 0z m30 -40 c-14 -4 -37 -8 -52 -9 -23 -1 -28 -6 -28 -26 0 -14
-5 -25 -12 -25 -6 0 -9 -2 -7 -5 3 -2 23 2 44 10 22 8 49 14 60 14 11 -1 0 -7
-25 -13 -26 -8 -44 -18 -42 -25 1 -7 -3 -11 -10 -8 -7 2 -21 -3 -32 -12 -18
-15 -18 -15 -12 6 6 19 1 25 -28 40 -52 24 -47 43 12 44 26 0 56 4 67 9 11 5
36 8 55 8 32 0 33 -1 10 -8z m33 -17 c-7 -2 -19 -2 -25 0 -7 3 -2 5 12 5 14 0
19 -2 13 -5z m-73 -13 c-8 -5 -19 -10 -25 -10 -5 0 -3 5 5 10 8 5 20 10 25 10
6 0 3 -5 -5 -10z m25 -50 c-3 -5 -10 -10 -16 -10 -5 0 -9 5 -9 10 0 6 7 10 16
10 8 0 12 -4 9 -10z m-15 -57 c0 -12 -8 -18 -25 -18 -14 0 -25 3 -25 8 0 4 9
7 20 7 11 0 20 5 20 10 0 6 2 10 5 10 3 0 5 -8 5 -17z m24 -96 c5 -21 4 -21
-14 3 -23 29 -26 48 -6 31 8 -6 16 -22 20 -34z m-299 -68 c-14 -6 -7 -8 25 -4
40 4 42 3 15 -5 -16 -6 -43 -7 -60 -4 -27 6 -28 8 -10 15 29 11 55 10 30 -2z
m100 -9 c-3 -5 -12 -10 -18 -10 -7 0 -6 4 3 10 19 12 23 12 15 0z m122 4 c-3
-3 -12 -4 -19 -1 -8 3 -5 6 6 6 11 1 17 -2 13 -5z m80 -40 c-3 -3 -12 -4 -19
-1 -8 3 -5 6 6 6 11 1 17 -2 13 -5z m46 -34 c3 -11 1 -18 -4 -14 -5 3 -9 -2
-9 -11 0 -9 3 -14 8 -11 4 2 8 -22 8 -54 1 -61 22 -99 45 -84 8 4 9 3 5 -4 -4
-7 -3 -12 1 -12 5 0 9 -10 10 -21 2 -25 32 -61 44 -53 5 3 9 0 9 -6 0 -6 5 -8
10 -5 6 3 10 1 10 -5 0 -6 4 -9 8 -6 22 13 172 -67 172 -91 0 -7 -4 -13 -9
-13 -15 0 -111 62 -107 69 2 3 -10 6 -27 7 -50 1 -90 26 -112 69 -11 21 -32
51 -48 67 -19 19 -27 37 -25 56 2 34 -20 92 -36 92 -6 0 -4 5 4 11 11 8 8 9
-15 5 -30 -5 -30 -5 -5 6 14 7 29 18 33 25 10 17 23 9 30 -17z m58 13 c13 -16
12 -17 -3 -4 -10 7 -18 15 -18 17 0 8 8 3 21 -13z m-174 -39 c-3 -3 -12 -4
-19 -1 -8 3 -5 6 6 6 11 1 17 -2 13 -5z m33 -14 c-14 -4 -34 -8 -45 -8 -16 0
-15 2 5 8 14 4 34 8 45 8 16 0 15 -2 -5 -8z m-185 -20 c-11 -5 -27 -9 -35 -9
-9 0 -8 4 5 9 11 5 27 9 35 9 9 0 8 -4 -5 -9z m112 4 c-3 -3 -12 -4 -19 -1 -8
3 -5 6 6 6 11 1 17 -2 13 -5z m-57 -14 l-25 -8 24 -1 c13 -1 22 -4 19 -7 -3
-3 -23 -2 -44 2 -36 7 -37 8 -14 15 14 4 34 7 45 7 16 0 15 -2 -5 -8z m-113
-6 c-3 -3 -12 -4 -19 -1 -8 3 -5 6 6 6 11 1 17 -2 13 -5z m250 0 c-3 -3 -12
-4 -19 -1 -8 3 -5 6 6 6 11 1 17 -2 13 -5z m-294 -11 c-7 -2 -19 -2 -25 0 -7
3 -2 5 12 5 14 0 19 -2 13 -5z m84 1 c-3 -3 -12 -4 -19 -1 -8 3 -5 6 6 6 11 1
17 -2 13 -5z m170 0 c-3 -3 -12 -4 -19 -1 -8 3 -5 6 6 6 11 1 17 -2 13 -5z
m-40 -10 c-3 -3 -12 -4 -19 -1 -8 3 -5 6 6 6 11 1 17 -2 13 -5z m-232 -14
c-11 -5 -27 -9 -35 -9 -9 0 -8 4 5 9 11 5 27 9 35 9 9 0 8 -4 -5 -9z m98 3
c-7 -2 -19 -2 -25 0 -7 3 -2 5 12 5 14 0 19 -2 13 -5z m77 -3 c-34 -11 -60
-11 -35 0 11 5 29 8 40 8 16 0 15 -2 -5 -8z m-123 -6 c-3 -3 -12 -4 -19 -1 -8
3 -5 6 6 6 11 1 17 -2 13 -5z m200 0 c-3 -3 -12 -4 -19 -1 -8 3 -5 6 6 6 11 1
17 -2 13 -5z m-140 -10 c-3 -3 -12 -4 -19 -1 -8 3 -5 6 6 6 11 1 17 -2 13 -5z
m-42 -9 c-34 -13 -87 -23 -79 -16 5 5 18 11 29 14 23 6 65 7 50 2z m72 -11
c-3 -3 -12 -4 -19 -1 -8 3 -5 6 6 6 11 1 17 -2 13 -5z m-50 -10 c-3 -3 -12 -4
-19 -1 -8 3 -5 6 6 6 11 1 17 -2 13 -5z m90 0 c-3 -3 -12 -4 -19 -1 -8 3 -5 6
6 6 11 1 17 -2 13 -5z m-128 -8 c-2 -2 -17 -6 -34 -10 -22 -5 -26 -4 -15 4 14
9 59 15 49 6z m46 -36 c-11 -5 -29 -8 -40 -8 -16 0 -15 2 5 8 34 11 60 11 35
0z m486 -77 c12 -16 12 -17 -2 -6 -9 7 -19 10 -22 6 -4 -3 -7 -1 -7 5 0 17 16
15 31 -5z m162 -134 c1 3 10 0 21 -6 12 -7 15 -13 8 -17 -9 -6 -32 4 -71 30
-1 2 0 8 5 15 5 9 11 7 21 -7 8 -10 15 -17 16 -15z m57 -39 c0 -5 -5 -10 -11
-10 -5 0 -7 5 -4 10 3 6 8 10 11 10 2 0 4 -4 4 -10z m35 -20 c3 -5 -1 -10 -10
-10 -9 0 -13 5 -10 10 3 6 8 10 10 10 2 0 7 -4 10 -10z m55 -47 c0 -1 -11 2
-25 9 -13 6 -22 15 -19 19 4 7 44 -19 44 -28z m66 -29 c19 -15 19 -15 -1 -6
-11 5 -27 12 -35 15 -13 5 -13 6 1 6 8 1 24 -6 35 -15z m64 -34 c0 -5 -4 -10
-10 -10 -5 0 -10 5 -10 10 0 6 5 10 10 10 6 0 10 -4 10 -10z"/>
<path d="M288 1093 c6 -2 18 -2 25 0 6 3 1 5 -13 5 -14 0 -19 -2 -12 -5z"/>
<path d="M270 980 c0 -5 9 -10 21 -10 11 0 17 5 14 10 -3 6 -13 10 -21 10 -8
0 -14 -4 -14 -10z"/>
<path d="M88 1023 c7 -3 16 -2 19 1 4 3 -2 6 -13 5 -11 0 -14 -3 -6 -6z"/>
<path d="M28 1013 c7 -3 16 -2 19 1 4 3 -2 6 -13 5 -11 0 -14 -3 -6 -6z"/>
<path d="M833 998 c5 -15 46 -13 61 2 7 7 -3 10 -28 10 -26 0 -36 -4 -33 -12z"/>
<path d="M1331 958 c-1 -31 10 -36 29 -13 11 13 11 18 0 28 -9 9 -11 9 -6 0 3
-6 2 -14 -3 -17 -5 -4 -12 2 -14 11 -3 11 -5 8 -6 -9z"/>
<path d="M1710 925 c0 -8 5 -15 10 -15 6 0 10 7 10 15 0 8 -4 15 -10 15 -5 0
-10 -7 -10 -15z"/>
<path d="M1370 905 c0 -16 34 -38 44 -28 8 9 8 23 -1 22 -20 -3 -34 2 -28 11
3 6 1 10 -4 10 -6 0 -11 -7 -11 -15z"/>
<path d="M0 880 c0 -5 9 -10 21 -10 11 0 17 5 14 10 -3 6 -13 10 -21 10 -8 0
-14 -4 -14 -10z"/>
<path d="M470 855 c0 -8 2 -15 4 -15 2 0 6 7 10 15 3 8 1 15 -4 15 -6 0 -10
-7 -10 -15z"/>
<path d="M228 853 c7 -3 16 -2 19 1 4 3 -2 6 -13 5 -11 0 -14 -3 -6 -6z"/>
<path d="M490 826 c0 -9 5 -16 10 -16 6 0 10 4 10 9 0 6 -4 13 -10 16 -5 3
-10 -1 -10 -9z"/>
<path d="M65 820 l-30 -8 30 0 c17 0 41 4 55 8 l25 8 -25 0 c-14 0 -38 -4 -55
-8z"/>
<path d="M1485 814 c9 -9 19 -13 23 -10 3 4 0 11 -8 16 -24 15 -33 11 -15 -6z"/>
<path d="M1582 808 c-7 -7 -12 -8 -12 -2 0 5 -4 3 -8 -4 -13 -20 -2 -71 13
-66 16 6 40 -33 37 -57 -5 -28 29 -17 65 21 31 33 38 58 15 53 -6 -2 -9 3 -6
11 4 9 -3 14 -20 14 -30 0 -31 -2 -10 -22 10 -11 11 -16 3 -16 -6 0 -18 8 -25
18 -13 16 -14 16 -8 -3 l7 -20 -16 20 c-32 40 -12 59 36 34 20 -10 20 -10 7 4
-21 20 -64 29 -78 15z"/>
<path d="M0 800 c0 -5 4 -10 9 -10 6 0 13 5 16 10 3 6 -1 10 -9 10 -9 0 -16
-4 -16 -10z"/>
<path d="M195 800 c3 -5 15 -10 26 -10 10 0 19 5 19 10 0 6 -12 10 -26 10 -14
0 -23 -4 -19 -10z"/>
<path d="M1386 801 c-3 -5 1 -12 10 -15 25 -9 54 -7 54 5 0 5 -4 7 -10 4 -5
-3 -18 -1 -29 5 -11 6 -22 6 -25 1z"/>
<path d="M655 790 c-9 -14 3 -30 23 -30 14 0 14 2 3 9 -7 5 -10 14 -7 20 4 6
3 11 -3 11 -5 0 -13 -4 -16 -10z"/>
<path d="M690 789 c0 -5 5 -7 10 -4 6 3 10 8 10 11 0 2 -4 4 -10 4 -5 0 -10
-5 -10 -11z"/>
<path d="M32 783 c-40 -5 -45 -33 -4 -32 24 0 25 1 7 10 -14 6 -8 7 22 3 47
-6 74 3 52 17 -14 9 -19 9 -77 2z"/>
<path d="M160 780 c0 -5 7 -7 15 -4 8 4 15 8 15 10 0 2 -7 4 -15 4 -8 0 -15
-4 -15 -10z"/>
<path d="M1468 773 c7 -3 16 -2 19 1 4 3 -2 6 -13 5 -11 0 -14 -3 -6 -6z"/>
<path d="M643 716 c0 -8 6 -12 14 -9 7 3 10 9 7 14 -8 14 -21 11 -21 -5z"/>
<path d="M1109 713 c-8 -9 -9 -14 -3 -10 7 4 10 -12 10 -48 -1 -29 3 -53 8
-52 21 4 14 -21 -9 -33 -27 -14 -35 -36 -10 -26 8 3 15 1 15 -4 0 -31 -83 22
-95 60 -6 20 -45 28 -45 10 0 -5 -7 -10 -15 -10 -14 0 -13 3 1 25 18 27 17 28
-38 25 -20 -1 -45 3 -55 8 -10 5 -35 7 -55 3 -30 -5 -36 -9 -28 -21 6 -10 10
-11 10 -2 0 6 5 12 10 12 6 0 10 -5 10 -12 0 -6 7 -19 16 -29 12 -14 13 -22 4
-38 -16 -31 1 -25 30 10 22 26 30 29 54 23 16 -4 36 -19 45 -35 9 -16 22 -27
29 -24 7 3 11 1 8 -4 -3 -5 0 -13 7 -18 18 -15 77 -24 77 -13 0 6 10 10 23 10
13 0 28 5 34 11 15 15 56 1 49 -17 -4 -11 5 -14 45 -13 27 1 52 6 55 11 3 5
20 7 37 5 18 -2 24 -2 15 0 -10 2 -18 11 -18 19 0 8 -9 14 -19 14 -11 0 -23 9
-26 20 -3 11 -18 23 -33 26 -15 3 -33 8 -41 10 -11 4 -11 1 -2 -10 7 -8 8 -17
3 -20 -14 -8 -35 21 -29 38 3 8 0 17 -7 19 -8 3 -12 15 -9 31 4 21 0 28 -21
36 -15 5 -24 14 -21 20 10 16 -1 11 -16 -7z"/>
<path d="M2385 715 c-22 -8 -33 -14 -25 -14 8 -1 26 -4 40 -6 22 -5 22 -4 5 4
-17 8 -17 10 -3 10 9 1 20 6 23 11 3 6 5 10 3 9 -2 -1 -21 -7 -43 -14z"/>
<path d="M1792 713 c-12 -2 -20 -8 -17 -12 6 -10 53 -2 61 10 5 9 -4 10 -44 2z"/>
<path d="M2238 713 c7 -3 16 -2 19 1 4 3 -2 6 -13 5 -11 0 -14 -3 -6 -6z"/>
<path d="M606 685 c-3 -10 -15 -12 -43 -8 -35 6 -37 5 -24 -10 7 -10 19 -17
26 -17 7 0 18 -7 25 -15 11 -13 14 -13 27 1 9 8 13 18 9 21 -3 3 -1 12 4 18 7
9 6 14 -4 18 -8 3 -17 0 -20 -8z m-29 -21 c-3 -3 -12 -4 -19 -1 -8 3 -5 6 6 6
11 1 17 -2 13 -5z"/>
<path d="M991 673 c7 -10 15 -20 16 -22 2 -2 3 5 3 17 0 14 -6 22 -16 22 -14
0 -15 -3 -3 -17z"/>
<path d="M298 673 c7 -3 16 -2 19 1 4 3 -2 6 -13 5 -11 0 -14 -3 -6 -6z"/>
<path d="M1070 669 c0 -5 5 -7 10 -4 6 3 10 8 10 11 0 2 -4 4 -10 4 -5 0 -10
-5 -10 -11z"/>
<path d="M2248 673 c7 -3 16 -2 19 1 4 3 -2 6 -13 5 -11 0 -14 -3 -6 -6z"/>
<path d="M750 660 c0 -5 5 -10 10 -10 6 0 10 5 10 10 0 6 -4 10 -10 10 -5 0
-10 -4 -10 -10z"/>
<path d="M2184 652 c18 -8 18 -9 2 -15 -25 -10 -38 -9 -32 2 7 10 -20 9 -30
-2 -14 -14 44 -16 81 -3 22 9 33 15 25 16 -8 0 -26 3 -40 5 -20 4 -21 4 -6 -3z"/>
<path d="M2258 653 c7 -3 16 -2 19 1 4 3 -2 6 -13 5 -11 0 -14 -3 -6 -6z"/>
<path d="M2518 653 c7 -3 16 -2 19 1 4 3 -2 6 -13 5 -11 0 -14 -3 -6 -6z"/>
<path d="M44 639 c-25 -6 -41 -15 -41 -24 0 -8 4 -15 9 -15 4 0 8 4 8 9 0 6
12 6 32 0 50 -14 68 -9 23 7 -33 11 -35 13 -10 10 17 -3 43 -2 60 1 25 6 27 7
10 14 -25 10 -40 9 -91 -2z m63 -5 c-3 -3 -12 -4 -19 -1 -8 3 -5 6 6 6 11 1
17 -2 13 -5z"/>
<path d="M2308 643 c7 -3 16 -2 19 1 4 3 -2 6 -13 5 -11 0 -14 -3 -6 -6z"/>
<path d="M2478 643 c7 -3 16 -2 19 1 4 3 -2 6 -13 5 -11 0 -14 -3 -6 -6z"/>
<path d="M2225 625 c-22 -8 -31 -13 -20 -13 11 0 36 6 55 13 45 17 18 17 -35
0z"/>
<path d="M660 620 c-8 -5 -19 -6 -25 -3 -6 4 -6 2 1 -6 14 -16 73 -31 79 -21
8 13 -40 39 -55 30z"/>
<path d="M2380 620 c-21 -7 -21 -8 -5 -9 11 0 27 4 35 9 18 11 5 11 -30 0z"/>
<path d="M2465 620 c-13 -5 -14 -9 -5 -9 8 0 24 4 35 9 13 5 14 9 5 9 -8 0
-24 -4 -35 -9z"/>
<path d="M2395 600 c-13 -5 -14 -9 -5 -9 8 0 24 4 35 9 13 5 14 9 5 9 -8 0
-24 -4 -35 -9z"/>
<path d="M2470 595 c-19 -7 -28 -14 -19 -14 9 -1 32 6 50 14 43 18 16 18 -31
0z"/>
<path d="M2298 593 c7 -3 16 -2 19 1 4 3 -2 6 -13 5 -11 0 -14 -3 -6 -6z"/>
<path d="M2588 582 c-26 -9 -50 -20 -54 -25 -6 -6 60 14 116 36 38 14 -18 4
-62 -11z"/>
<path d="M1745 580 c-8 -13 15 -13 35 0 12 8 11 10 -7 10 -12 0 -25 -4 -28
-10z"/>
<path d="M758 563 c7 -3 16 -2 19 1 4 3 -2 6 -13 5 -11 0 -14 -3 -6 -6z"/>
<path d="M2570 550 c-18 -12 -2 -12 25 0 13 6 15 9 5 9 -8 0 -22 -4 -30 -9z"/>
<path d="M1465 530 c-3 -5 1 -10 9 -10 9 0 16 5 16 10 0 6 -4 10 -9 10 -6 0
-13 -4 -16 -10z"/>
<path d="M2476 491 c-4 -5 3 -7 14 -4 23 6 26 13 6 13 -8 0 -17 -4 -20 -9z"/>
<path d="M2605 486 c-119 -39 -150 -46 -131 -31 11 8 16 15 10 15 -10 -1 -69
-53 -94 -85 -14 -17 -14 -18 7 -7 29 16 36 15 29 -4 -5 -12 -1 -14 17 -9 19 6
20 5 7 -7 -8 -8 -41 -22 -73 -32 -32 -10 -57 -19 -55 -21 4 -4 99 24 141 40 9
4 17 3 17 -2 0 -8 -157 -65 -190 -68 -8 -1 -25 -7 -37 -13 -12 -7 -29 -12 -38
-12 -22 0 -68 -48 -59 -62 5 -7 3 -8 -5 -3 -8 4 -18 -1 -27 -13 -8 -11 -45
-32 -83 -46 -37 -15 -79 -38 -92 -53 l-24 -25 24 7 c56 17 84 32 70 38 -8 4
-3 4 11 1 14 -3 43 2 64 11 41 17 64 11 31 -8 -11 -6 -24 -12 -30 -13 -5 -2
-41 -12 -80 -24 -38 -12 -77 -22 -87 -22 -9 0 -24 -9 -35 -20 -18 -21 -18 -21
2 -14 50 19 251 86 258 86 4 0 7 -4 7 -8 0 -4 -48 -23 -107 -42 -59 -18 -102
-35 -97 -37 9 -3 174 44 217 62 13 5 16 3 12 -7 -6 -14 -58 -34 -114 -45 -50
-9 -32 -12 56 -9 49 2 96 6 103 11 9 5 11 4 6 -3 -5 -8 3 -12 26 -12 23 0 29
3 19 9 -16 10 -6 31 15 31 8 0 14 4 14 10 0 6 -9 6 -22 1 -25 -9 -78 5 -78 20
0 13 28 11 32 -3 3 -8 69 10 209 58 235 81 241 86 159 144 -27 19 -50 38 -50
42 0 3 23 14 51 23 28 9 48 19 46 21 -3 3 -27 -4 -55 -14 -27 -11 -56 -16 -62
-12 -7 5 14 16 54 30 37 12 65 24 63 26 -2 2 -36 -7 -76 -21 -66 -22 -74 -23
-89 -9 -13 14 -13 17 -1 26 11 7 8 9 -8 5 -13 -3 -25 -2 -28 3 -2 4 30 18 73
30 42 13 91 29 107 37 38 18 14 12 -107 -25 -54 -17 -98 -27 -98 -23 0 4 52
24 115 45 63 20 115 39 115 42 0 6 -10 4 -55 -10z m-95 -164 c0 -5 -34 -19
-75 -32 -41 -13 -73 -25 -71 -28 3 -2 41 8 86 23 45 15 84 24 87 21 3 -3 0 -8
-8 -10 -8 -3 -66 -21 -129 -41 -63 -21 -122 -40 -130 -43 -8 -3 -22 -7 -30 -8
-8 -1 -28 -5 -45 -9 -23 -5 -26 -4 -15 4 13 10 13 11 0 11 -28 1 11 17 166 69
160 54 164 55 164 43z m48 -44 c-2 -6 -22 -17 -44 -24 -21 -7 -100 -31 -174
-54 -74 -23 -148 -48 -165 -55 -16 -8 -34 -11 -39 -8 -12 8 2 13 224 89 205
69 203 69 198 52z m26 -27 c-5 -5 -33 -16 -62 -26 -29 -9 -51 -19 -49 -21 2
-2 30 5 62 16 62 21 96 26 80 11 -12 -10 -290 -101 -311 -101 -7 0 -14 -5 -14
-12 0 -6 -3 -9 -6 -5 -4 3 -19 0 -35 -8 -15 -8 -35 -15 -44 -15 -16 0 -51 28
-44 34 8 8 424 143 428 139 3 -2 0 -7 -5 -12z m56 -41 c0 -5 -1 -10 -3 -10 -2
0 -88 -29 -192 -65 -104 -35 -193 -61 -198 -56 -4 4 55 29 132 55 76 26 161
56 188 66 57 21 73 24 73 10z m-570 -94 c0 -3 -4 -8 -10 -11 -5 -3 -10 -1 -10
4 0 6 5 11 10 11 6 0 10 -2 10 -4z m114 -94 c2 -4 -10 -9 -27 -9 -26 -2 -28 0
-12 7 26 11 33 12 39 2z"/>
<path d="M2295 245 c-40 -19 -16 -19 26 0 19 8 27 14 19 14 -8 0 -28 -7 -45
-14z"/>
<path d="M2215 220 c-13 -6 -15 -9 -5 -9 8 0 22 4 30 9 18 12 2 12 -25 0z"/>
<path d="M2405 185 c-39 -17 -21 -18 25 0 19 7 28 14 20 14 -8 0 -28 -6 -45
-14z"/>
<path d="M2348 163 c7 -3 16 -2 19 1 4 3 -2 6 -13 5 -11 0 -14 -3 -6 -6z"/>
<path d="M2300 150 c-8 -5 -10 -10 -5 -10 6 0 17 5 25 10 8 5 11 10 5 10 -5 0
-17 -5 -25 -10z"/>
<path d="M2220 124 c-19 -7 -28 -13 -19 -13 9 -1 32 6 50 14 42 18 17 17 -31
-1z"/>
<path d="M2638 433 c7 -3 16 -2 19 1 4 3 -2 6 -13 5 -11 0 -14 -3 -6 -6z"/>
<path d="M2520 370 c-18 -12 -2 -12 25 0 13 6 15 9 5 9 -8 0 -22 -4 -30 -9z"/>
<path d="M2345 340 c-3 -6 1 -7 9 -4 18 7 21 14 7 14 -6 0 -13 -4 -16 -10z"/>
<path d="M2613 320 c-13 -5 -23 -11 -23 -14 0 -6 60 11 68 19 8 8 -20 5 -45
-5z"/>
<path d="M2625 290 c-13 -6 -15 -9 -5 -9 8 0 22 4 30 9 18 12 2 12 -25 0z"/>
<path d="M2619 171 c-14 -5 -41 -15 -60 -23 -71 -31 -175 -68 -192 -68 -10 0
-26 -7 -35 -16 -20 -21 -22 -21 171 46 86 30 157 58 157 62 0 9 -6 9 -41 -1z"/>
<path d="M2615 125 c-25 -12 -26 -14 -5 -9 28 7 60 23 45 23 -5 0 -23 -6 -40
-14z"/>
<path d="M2540 100 c-18 -12 -2 -12 25 0 13 6 15 9 5 9 -8 0 -22 -4 -30 -9z"/>
<path d="M2625 103 c-11 -3 -25 -9 -30 -13 -6 -5 -22 -11 -37 -14 -14 -2 -36
-9 -47 -16 -12 -6 -21 -7 -21 -3 0 4 -5 2 -12 -5 -7 -7 -22 -12 -35 -12 -13 0
-23 -5 -23 -11 0 -5 -5 -7 -10 -4 -6 4 -16 2 -23 -3 -7 -6 -23 -12 -37 -15
-25 -4 -25 -4 2 -6 15 0 83 19 151 43 144 50 201 78 122 59z"/>
<path d="M2387 48 c-49 -16 -86 -32 -84 -34 4 -4 177 53 185 61 10 9 -13 3
-101 -27z"/>
<path d="M2648 75 c-2 -3 -49 -20 -104 -40 -54 -19 -91 -34 -82 -35 21 0 179
58 193 71 5 5 7 9 4 9 -3 0 -8 -2 -11 -5z"/>
<path d="M2595 19 c-26 -12 -33 -18 -20 -18 11 0 36 8 55 19 45 25 17 24 -35
-1z"/>
</g>
</svg>
